<?xml version="1.0" encoding="UTF-8" standalone="no"?>
<!DOCTYPE svg PUBLIC "-//W3C//DTD SVG 1.1//EN"
 "http://www.w3.org/Graphics/SVG/1.1/DTD/svg11.dtd">
<!-- Generated by graphviz version 2.49.0 (20210828.1703)
 -->
<!-- Title: dynamic_programming::fibonacci_memoization::nthFibonacci Pages: 1 -->
<svg width="296pt" height="165pt"
 viewBox="0.00 0.00 296.00 164.50" xmlns="http://www.w3.org/2000/svg" xmlns:xlink="http://www.w3.org/1999/xlink">
<g id="graph0" class="graph" transform="scale(1 1) rotate(0) translate(4 160.5)">
<title>dynamic_programming::fibonacci_memoization::nthFibonacci</title>
<polygon fill="white" stroke="transparent" points="-4,4 -4,-160.5 292,-160.5 292,4 -4,4"/>
<!-- Node1 -->
<g id="node1" class="node">
<title>Node1</title>
<g id="a_node1"><a xlink:title="The function that implements the nth Fibonacci number problem using memoization.">
<polygon fill="#bfbfbf" stroke="black" points="0,-66 0,-107 124,-107 124,-66 0,-66"/>
<text text-anchor="start" x="8" y="-95" font-family="Helvetica,sans-Serif" font-size="10.00">dynamic_programming</text>
<text text-anchor="start" x="8" y="-84" font-family="Helvetica,sans-Serif" font-size="10.00">::fibonacci_memoization</text>
<text text-anchor="middle" x="62" y="-73" font-family="Helvetica,sans-Serif" font-size="10.00">::nthFibonacci</text>
</a>
</g>
</g>
<!-- Node1&#45;&gt;Node1 -->
<g id="edge5" class="edge">
<title>Node1&#45;&gt;Node1</title>
<path fill="none" stroke="midnightblue" d="M32.23,-107.36C28.98,-117.04 38.9,-125.5 62,-125.5 76.44,-125.5 85.73,-122.2 89.87,-117.36"/>
<polygon fill="midnightblue" stroke="midnightblue" points="93.34,-117.84 91.77,-107.36 86.46,-116.53 93.34,-117.84"/>
</g>
<!-- Node2 -->
<g id="node2" class="node">
<title>Node2</title>
<g id="a_node2"><a target="_blank" xlink:href="http://en.cppreference.com/w/cpp/container/unordered_map/at.html#" xlink:title=" ">
<polygon fill="white" stroke="black" points="164,-137 164,-156 284,-156 284,-137 164,-137"/>
<text text-anchor="middle" x="224" y="-144" font-family="Helvetica,sans-Serif" font-size="10.00">std::unordered_map::at</text>
</a>
</g>
</g>
<!-- Node1&#45;&gt;Node2 -->
<g id="edge1" class="edge">
<title>Node1&#45;&gt;Node2</title>
<path fill="none" stroke="midnightblue" d="M108.98,-107.12C124.98,-113.98 143.15,-121.42 160,-127.5 166.06,-129.69 172.52,-131.84 178.89,-133.85"/>
<polygon fill="midnightblue" stroke="midnightblue" points="178.19,-137.3 188.78,-136.9 180.25,-130.61 178.19,-137.3"/>
</g>
<!-- Node3 -->
<g id="node3" class="node">
<title>Node3</title>
<g id="a_node3"><a target="_blank" xlink:href="http://en.cppreference.com/w/cpp/container/unordered_map/end.html#" xlink:title=" ">
<polygon fill="white" stroke="black" points="160,-99 160,-118 288,-118 288,-99 160,-99"/>
<text text-anchor="middle" x="224" y="-106" font-family="Helvetica,sans-Serif" font-size="10.00">std::unordered_map::end</text>
</a>
</g>
</g>
<!-- Node1&#45;&gt;Node3 -->
<g id="edge2" class="edge">
<title>Node1&#45;&gt;Node3</title>
<path fill="none" stroke="midnightblue" d="M124.4,-94.94C132.76,-96.09 141.41,-97.28 149.95,-98.46"/>
<polygon fill="midnightblue" stroke="midnightblue" points="149.52,-101.93 159.91,-99.82 150.48,-95 149.52,-101.93"/>
</g>
<!-- Node4 -->
<g id="node4" class="node">
<title>Node4</title>
<g id="a_node4"><a target="_blank" xlink:href="http://en.cppreference.com/w/cpp/container/unordered_map/find.html#" xlink:title=" ">
<polygon fill="white" stroke="black" points="171,-49.5 171,-79.5 277,-79.5 277,-49.5 171,-49.5"/>
<text text-anchor="start" x="179" y="-67.5" font-family="Helvetica,sans-Serif" font-size="10.00">std::unordered_map</text>
<text text-anchor="middle" x="224" y="-56.5" font-family="Helvetica,sans-Serif" font-size="10.00">::find</text>
</a>
</g>
</g>
<!-- Node1&#45;&gt;Node4 -->
<g id="edge3" class="edge">
<title>Node1&#45;&gt;Node4</title>
<path fill="none" stroke="midnightblue" d="M124.4,-78.06C136.38,-76.41 148.95,-74.68 160.95,-73.03"/>
<polygon fill="midnightblue" stroke="midnightblue" points="161.44,-76.5 170.87,-71.67 160.49,-69.56 161.44,-76.5"/>
</g>
<!-- Node5 -->
<g id="node5" class="node">
<title>Node5</title>
<g id="a_node5"><a target="_blank" xlink:href="http://en.cppreference.com/w/cpp/container/unordered_map/insert.html#" xlink:title=" ">
<polygon fill="white" stroke="black" points="171,-0.5 171,-30.5 277,-30.5 277,-0.5 171,-0.5"/>
<text text-anchor="start" x="179" y="-18.5" font-family="Helvetica,sans-Serif" font-size="10.00">std::unordered_map</text>
<text text-anchor="middle" x="224" y="-7.5" font-family="Helvetica,sans-Serif" font-size="10.00">::insert</text>
</a>
</g>
</g>
<!-- Node1&#45;&gt;Node5 -->
<g id="edge4" class="edge">
<title>Node1&#45;&gt;Node5</title>
<path fill="none" stroke="midnightblue" d="M104.74,-65.97C121.77,-57.8 141.71,-48.45 160,-40.5 164.67,-38.47 169.56,-36.41 174.46,-34.39"/>
<polygon fill="midnightblue" stroke="midnightblue" points="175.91,-37.58 183.85,-30.58 173.27,-31.1 175.91,-37.58"/>
</g>
</g>
</svg>
