<?xml version="1.0" encoding="UTF-8" standalone="no"?>
<!DOCTYPE svg PUBLIC "-//W3C//DTD SVG 1.1//EN"
 "http://www.w3.org/Graphics/SVG/1.1/DTD/svg11.dtd">
<!-- Generated by graphviz version 2.49.0 (20210828.1703)
 -->
<!-- Title: dynamic_programming/fibonacci_memoization.cpp Pages: 1 -->
<svg width="235pt" height="95pt"
 viewBox="0.00 0.00 235.00 95.00" xmlns="http://www.w3.org/2000/svg" xmlns:xlink="http://www.w3.org/1999/xlink">
<g id="graph0" class="graph" transform="scale(1 1) rotate(0) translate(4 91)">
<title>dynamic_programming/fibonacci_memoization.cpp</title>
<polygon fill="white" stroke="transparent" points="-4,4 -4,-91 231,-91 231,4 -4,4"/>
<!-- Node1 -->
<g id="node1" class="node">
<title>Node1</title>
<g id="a_node1"><a xlink:title="Implementation of nth Fibonacci problem using memoization.">
<polygon fill="#bfbfbf" stroke="black" points="24.5,-56.5 24.5,-86.5 164.5,-86.5 164.5,-56.5 24.5,-56.5"/>
<text text-anchor="start" x="32.5" y="-74.5" font-family="Helvetica,sans-Serif" font-size="10.00">dynamic_programming</text>
<text text-anchor="middle" x="94.5" y="-63.5" font-family="Helvetica,sans-Serif" font-size="10.00">/fibonacci_memoization.cpp</text>
</a>
</g>
</g>
<!-- Node2 -->
<g id="node2" class="node">
<title>Node2</title>
<g id="a_node2"><a xlink:title=" ">
<polygon fill="white" stroke="#bfbfbf" points="0,-0.5 0,-19.5 49,-19.5 49,-0.5 0,-0.5"/>
<text text-anchor="middle" x="24.5" y="-7.5" font-family="Helvetica,sans-Serif" font-size="10.00">cassert</text>
</a>
</g>
</g>
<!-- Node1&#45;&gt;Node2 -->
<g id="edge1" class="edge">
<title>Node1&#45;&gt;Node2</title>
<path fill="none" stroke="midnightblue" d="M77.91,-56.4C67.21,-47.31 53.31,-35.49 42.37,-26.19"/>
<polygon fill="midnightblue" stroke="midnightblue" points="44.57,-23.47 34.69,-19.66 40.04,-28.8 44.57,-23.47"/>
</g>
<!-- Node3 -->
<g id="node3" class="node">
<title>Node3</title>
<g id="a_node3"><a xlink:title=" ">
<polygon fill="white" stroke="#bfbfbf" points="67,-0.5 67,-19.5 122,-19.5 122,-0.5 67,-0.5"/>
<text text-anchor="middle" x="94.5" y="-7.5" font-family="Helvetica,sans-Serif" font-size="10.00">iostream</text>
</a>
</g>
</g>
<!-- Node1&#45;&gt;Node3 -->
<g id="edge2" class="edge">
<title>Node1&#45;&gt;Node3</title>
<path fill="none" stroke="midnightblue" d="M94.5,-56.4C94.5,-48.47 94.5,-38.46 94.5,-29.86"/>
<polygon fill="midnightblue" stroke="midnightblue" points="98,-29.66 94.5,-19.66 91,-29.66 98,-29.66"/>
</g>
<!-- Node4 -->
<g id="node4" class="node">
<title>Node4</title>
<g id="a_node4"><a xlink:title=" ">
<polygon fill="white" stroke="#bfbfbf" points="140,-0.5 140,-19.5 227,-19.5 227,-0.5 140,-0.5"/>
<text text-anchor="middle" x="183.5" y="-7.5" font-family="Helvetica,sans-Serif" font-size="10.00">unordered_map</text>
</a>
</g>
</g>
<!-- Node1&#45;&gt;Node4 -->
<g id="edge3" class="edge">
<title>Node1&#45;&gt;Node4</title>
<path fill="none" stroke="midnightblue" d="M115.59,-56.4C129.59,-47.04 147.91,-34.79 161.99,-25.38"/>
<polygon fill="midnightblue" stroke="midnightblue" points="164.18,-28.13 170.55,-19.66 160.29,-22.31 164.18,-28.13"/>
</g>
</g>
</svg>
